<?xml version="1.0" encoding="UTF-8" standalone="no"?><!DOCTYPE svg PUBLIC "-//W3C//DTD SVG 1.1//EN" "http://www.w3.org/Graphics/SVG/1.1/DTD/svg11.dtd"><svg width="100%" height="100%" viewBox="0 0 246 246" version="1.1" xmlns="http://www.w3.org/2000/svg" xmlns:xlink="http://www.w3.org/1999/xlink" xml:space="preserve" xmlns:serif="http://www.serif.com/" style="fill-rule:evenodd;clip-rule:evenodd;stroke-linejoin:round;stroke-miterlimit:2;"><g><g><path d="M177.022,65.789c-2.975,0 -5.39,-2.415 -5.39,-5.39l0,-38.443l-70.838,-10.112c-2.943,-0.42 -4.991,-3.148 -4.571,-6.091c0.431,-2.943 3.169,-4.937 6.102,-4.582l75.463,10.78c2.652,0.367 4.625,2.641 4.625,5.326l0,43.122c0,2.975 -2.415,5.39 -5.39,5.39Z" style="fill:#101820;fill-rule:nonzero;"/></g><g><path d="M177.022,83.549c-2.975,0 -5.39,-2.415 -5.39,-5.39l0,-38.443l-70.838,-10.112c-2.943,-0.42 -4.991,-3.148 -4.571,-6.091c0.431,-2.943 3.169,-4.937 6.102,-4.582l75.463,10.78c2.652,0.367 4.625,2.641 4.625,5.326l0,43.122c0,2.975 -2.415,5.39 -5.39,5.39Z" style="fill:#101820;fill-rule:nonzero;"/></g><g><path d="M101.559,87.35c-2.975,0 -5.39,-2.415 -5.39,-5.39l0,-67.992l-21.561,7.191l0,60.802c0,2.975 -2.415,5.39 -5.39,5.39c-2.975,0 -5.39,-2.415 -5.39,-5.39l0,-64.683c0,-2.318 1.488,-4.377 3.687,-5.121l32.341,-10.78c1.639,-0.539 3.45,-0.27 4.862,0.744c1.401,1.013 2.232,2.641 2.232,4.377l0,75.463c0,2.975 -2.415,5.39 -5.39,5.39Z" style="fill:#101820;fill-rule:nonzero;"/></g><g><path d="M115.035,238.277l-88.939,0c-2.975,0 -5.39,-2.415 -5.39,-5.39l0,-21.561c0,-2.975 2.415,-5.39 5.39,-5.39l91.634,0c2.975,0 5.39,2.415 5.39,5.39c0,2.975 -2.415,5.39 -5.39,5.39l-86.244,0l0,10.78l83.549,0c2.975,0 5.39,2.415 5.39,5.39c0,2.975 -2.415,5.39 -5.39,5.39Z" style="fill:#101820;fill-rule:nonzero;"/></g><g><path d="M26.096,238.277l-40.427,0c-2.975,0 -5.39,-2.415 -5.39,-5.39c0,-2.975 2.415,-5.39 5.39,-5.39l35.037,0l0,-10.78l-21.561,0c-2.975,0 -5.39,-2.415 -5.39,-5.39c0,-2.975 2.415,-5.39 5.39,-5.39l26.951,0c2.975,0 5.39,2.415 5.39,5.39l0,21.561c0,2.975 -2.415,5.39 -5.39,5.39Z" style="fill:#101820;fill-rule:nonzero;"/></g><g><path d="M306.388,216.716l-53.902,0c-2.975,0 -5.39,-2.415 -5.39,-5.39c0,-2.975 2.415,-5.39 5.39,-5.39l48.512,0l0,-10.78l-64.683,0c-2.975,0 -5.39,-2.415 -5.39,-5.39c0,-2.975 2.415,-5.39 5.39,-5.39l70.073,0c2.975,0 5.39,2.415 5.39,5.39l0,21.561c0,2.975 -2.415,5.39 -5.39,5.39Z" style="fill:#101820;fill-rule:nonzero;"/></g><g><path d="M117.73,216.716l-80.853,0c-2.975,0 -5.39,-2.415 -5.39,-5.39l0,-21.561c0,-2.975 2.415,-5.39 5.39,-5.39l83.549,0c2.975,0 5.39,2.415 5.39,5.39c0,2.975 -2.415,5.39 -5.39,5.39l-78.158,0l0,10.78l75.463,0c2.975,0 5.39,2.415 5.39,5.39c0,2.975 -2.415,5.39 -5.39,5.39Z" style="fill:#101820;fill-rule:nonzero;"/></g><g><path d="M36.876,216.716l-37.732,0c-2.975,0 -5.39,-2.415 -5.39,-5.39c0,-2.975 2.415,-5.39 5.39,-5.39l32.341,0l0,-10.78l-18.866,0c-2.975,0 -5.39,-2.415 -5.39,-5.39c0,-2.975 2.415,-5.39 5.39,-5.39l24.256,0c2.975,0 5.39,2.415 5.39,5.39l0,21.561c0,2.975 -2.415,5.39 -5.39,5.39Z" style="fill:#101820;fill-rule:nonzero;"/></g><g><path d="M284.827,195.155l-48.512,0c-2.975,0 -5.39,-2.415 -5.39,-5.39c0,-2.975 2.415,-5.39 5.39,-5.39l43.122,0l0,-10.78l-59.293,0c-2.975,0 -5.39,-2.415 -5.39,-5.39c0,-2.975 2.415,-5.39 5.39,-5.39l64.683,0c2.975,0 5.39,2.415 5.39,5.39l0,21.561c0,2.975 -2.415,5.39 -5.39,5.39Z" style="fill:#101820;fill-rule:nonzero;"/></g><g><path d="M120.425,195.155l-72.768,0c-2.975,0 -5.39,-2.415 -5.39,-5.39l0,-21.561c0,-2.975 2.415,-5.39 5.39,-5.39l75.463,0c2.975,0 5.39,2.415 5.39,5.39c0,2.975 -2.415,5.39 -5.39,5.39l-70.073,0l0,10.78l67.378,0c2.975,0 5.39,2.415 5.39,5.39c0,2.975 -2.415,5.39 -5.39,5.39Z" style="fill:#101820;fill-rule:nonzero;"/></g><g><path d="M47.657,195.155l-35.037,0c-2.975,0 -5.39,-2.415 -5.39,-5.39c0,-2.975 2.415,-5.39 5.39,-5.39l29.646,0l0,-10.78l-16.171,0c-2.975,0 -5.39,-2.415 -5.39,-5.39c0,-2.975 2.415,-5.39 5.39,-5.39l21.561,0c2.975,0 5.39,2.415 5.39,5.39l0,21.561c0,2.975 -2.415,5.39 -5.39,5.39Z" style="fill:#101820;fill-rule:nonzero;"/></g><g><path d="M-17.953,195.155l-20.634,0c-2.975,0 -5.39,-2.415 -5.39,-5.39l0,-21.561c0,-2.975 2.415,-5.39 5.39,-5.39l38.152,0c2.975,0 5.39,2.415 5.39,5.39c0,2.975 -2.415,5.39 -5.39,5.39l-32.762,0l0,10.78l15.244,0c2.975,0 5.39,2.415 5.39,5.39c0,2.975 -2.415,5.39 -5.39,5.39Z" style="fill:#101820;fill-rule:nonzero;"/></g><g><path d="M263.266,173.594l-43.122,0c-2.975,0 -5.39,-2.415 -5.39,-5.39c0,-2.975 2.415,-5.39 5.39,-5.39l37.732,0l0,-10.78l-53.902,0c-2.975,0 -5.39,-2.415 -5.39,-5.39c0,-2.975 2.415,-5.39 5.39,-5.39l59.293,0c2.975,0 5.39,2.415 5.39,5.39l0,21.561c0,2.975 -2.415,5.39 -5.39,5.39Z" style="fill:#101820;fill-rule:nonzero;"/></g><g><path d="M123.12,173.594l-64.683,0c-2.975,0 -5.39,-2.415 -5.39,-5.39l0,-21.561c0,-2.975 2.415,-5.39 5.39,-5.39l67.378,0c2.975,0 5.39,2.415 5.39,5.39c0,2.975 -2.415,5.39 -5.39,5.39l-61.988,0l0,10.78l59.293,0c2.975,0 5.39,2.415 5.39,5.39c0,2.975 -2.415,5.39 -5.39,5.39Z" style="fill:#101820;fill-rule:nonzero;"/></g><g><path d="M58.437,173.594l-32.341,0c-2.975,0 -5.39,-2.415 -5.39,-5.39c0,-2.975 2.415,-5.39 5.39,-5.39l26.951,0l0,-10.78l-13.476,0c-2.975,0 -5.39,-2.415 -5.39,-5.39c0,-2.975 2.415,-5.39 5.39,-5.39l18.866,0c2.975,0 5.39,2.415 5.39,5.39l0,21.561c0,2.975 -2.415,5.39 -5.39,5.39Z" style="fill:#101820;fill-rule:nonzero;"/></g><g><path d="M-0.435,173.594l-16.591,0c-2.975,0 -5.39,-2.415 -5.39,-5.39l0,-21.561c0,-2.975 2.415,-5.39 5.39,-5.39l34.109,0c2.975,0 5.39,2.415 5.39,5.39c0,2.975 -2.415,5.39 -5.39,5.39l-28.719,0l0,10.78l11.201,0c2.975,0 5.39,2.415 5.39,5.39c0,2.975 -2.415,5.39 -5.39,5.39Z" style="fill:#101820;fill-rule:nonzero;"/></g><g><path d="M241.705,152.033l-37.732,0c-2.975,0 -5.39,-2.415 -5.39,-5.39c0,-2.975 2.415,-5.39 5.39,-5.39l32.341,0l0,-10.78l-48.512,0c-2.975,0 -5.39,-2.415 -5.39,-5.39c0,-2.975 2.415,-5.39 5.39,-5.39l53.902,0c2.975,0 5.39,2.415 5.39,5.39l0,21.561c0,2.975 -2.415,5.39 -5.39,5.39Z" style="fill:#101820;fill-rule:nonzero;"/></g><g><path d="M125.815,152.033l-56.597,0c-2.975,0 -5.39,-2.415 -5.39,-5.39l0,-21.561c0,-2.975 2.415,-5.39 5.39,-5.39l59.293,0c2.975,0 5.39,2.415 5.39,5.39c0,2.975 -2.415,5.39 -5.39,5.39l-53.902,0l0,10.78l51.207,0c2.975,0 5.39,2.415 5.39,5.39c0,2.975 -2.415,5.39 -5.39,5.39Z" style="fill:#101820;fill-rule:nonzero;"/></g><g><path d="M69.218,152.033l-29.646,0c-2.975,0 -5.39,-2.415 -5.39,-5.39c0,-2.975 2.415,-5.39 5.39,-5.39l24.256,0l0,-10.78l-10.78,0c-2.975,0 -5.39,-2.415 -5.39,-5.39c0,-2.975 2.415,-5.39 5.39,-5.39l16.171,0c2.975,0 5.39,2.415 5.39,5.39l0,21.561c0,2.975 -2.415,5.39 -5.39,5.39Z" style="fill:#101820;fill-rule:nonzero;"/></g><g><path d="M17.083,152.033l-12.548,0c-2.975,0 -5.39,-2.415 -5.39,-5.39l0,-21.561c0,-2.975 2.415,-5.39 5.39,-5.39l30.067,0c2.975,0 5.39,2.415 5.39,5.39c0,2.975 -2.415,5.39 -5.39,5.39l-24.676,0l0,10.78l7.158,0c2.975,0 5.39,2.415 5.39,5.39c0,2.975 -2.415,5.39 -5.39,5.39Z" style="fill:#101820;fill-rule:nonzero;"/></g><g><path d="M220.144,130.472l-32.341,0c-2.975,0 -5.39,-2.415 -5.39,-5.39c0,-2.975 2.415,-5.39 5.39,-5.39l26.951,0l0,-10.78l-43.122,0c-2.975,0 -5.39,-2.415 -5.39,-5.39c0,-2.975 2.415,-5.39 5.39,-5.39l48.512,0c2.975,0 5.39,2.415 5.39,5.39l0,21.561c0,2.975 -2.415,5.39 -5.39,5.39Z" style="fill:#101820;fill-rule:nonzero;"/></g><g><path d="M128.51,130.472l-48.512,0c-2.975,0 -5.39,-2.415 -5.39,-5.39l0,-21.561c0,-2.975 2.415,-5.39 5.39,-5.39l51.207,0c2.975,0 5.39,2.415 5.39,5.39c0,2.975 -2.415,5.39 -5.39,5.39l-45.817,0l0,10.78l43.122,0c2.975,0 5.39,2.415 5.39,5.39c0,2.975 -2.415,5.39 -5.39,5.39Z" style="fill:#101820;fill-rule:nonzero;"/></g><g><path d="M79.998,130.472l-26.951,0c-2.975,0 -5.39,-2.415 -5.39,-5.39c0,-2.975 2.415,-5.39 5.39,-5.39l21.561,0l0,-10.78l-8.085,0c-2.975,0 -5.39,-2.415 -5.39,-5.39c0,-2.975 2.415,-5.39 5.39,-5.39l13.476,0c2.975,0 5.39,2.415 5.39,5.39l0,21.561c0,2.975 -2.415,5.39 -5.39,5.39Z" style="fill:#101820;fill-rule:nonzero;"/></g><g><path d="M34.602,130.472l-8.506,0c-2.975,0 -5.39,-2.415 -5.39,-5.39l0,-21.561c0,-2.975 2.415,-5.39 5.39,-5.39l26.024,0c2.975,0 5.39,2.415 5.39,5.39c0,2.975 -2.415,5.39 -5.39,5.39l-20.634,0l0,10.78l3.116,0c2.975,0 5.39,2.415 5.39,5.39c0,2.975 -2.415,5.39 -5.39,5.39Z" style="fill:#101820;fill-rule:nonzero;"/></g><g><path d="M198.583,108.911l-26.951,0c-2.975,0 -5.39,-2.415 -5.39,-5.39c0,-2.975 2.415,-5.39 5.39,-5.39l21.561,0l0,-10.78l-97.024,0l0,10.78l35.037,0c2.975,0 5.39,2.415 5.39,5.39c0,2.975 -2.415,5.39 -5.39,5.39l-40.427,0c-2.975,0 -5.39,-2.415 -5.39,-5.39l0,-21.561c0,-2.975 2.415,-5.39 5.39,-5.39l107.805,0c2.975,0 5.39,2.415 5.39,5.39l0,21.561c0,2.975 -2.415,5.39 -5.39,5.39Z" style="fill:#101820;fill-rule:nonzero;"/></g><g><path d="M90.779,108.911l-24.256,0c-2.975,0 -5.39,-2.415 -5.39,-5.39c0,-2.975 2.415,-5.39 5.39,-5.39l18.866,0l0,-10.78l-32.341,0l0,10.867c2.533,0.431 4.463,2.641 4.463,5.304c0,2.975 -2.415,5.39 -5.39,5.39l-4.463,0c-2.975,0 -5.39,-2.415 -5.39,-5.39l0,-21.561c0,-2.975 2.415,-5.39 5.39,-5.39l43.122,0c2.975,0 5.39,2.415 5.39,5.39l0,21.561c0,2.975 -2.415,5.39 -5.39,5.39Z" style="fill:#101820;fill-rule:nonzero;"/></g><g><path d="M-21.069,249.057c-0.97,0 -1.962,-0.259 -2.857,-0.819c-2.523,-1.574 -3.288,-4.905 -1.714,-7.417l89.467,-143.165l-121.388,149.406c-1.876,2.307 -5.272,2.684 -7.589,0.776c-2.307,-1.876 -2.663,-5.261 -0.787,-7.579l131.392,-161.707c1.024,-1.261 2.566,-1.994 4.183,-1.994l10.36,0c1.962,0 3.762,1.067 4.722,2.781c0.949,1.714 0.895,3.816 -0.151,5.466l-101.067,161.707c-1.024,1.649 -2.781,2.544 -4.571,2.544Z" style="fill:#101820;fill-rule:nonzero;"/></g><g><path d="M113.687,249.057c-0.226,0 -0.453,-0.011 -0.679,-0.043c-2.954,-0.367 -5.045,-3.062 -4.679,-6.026l20.213,-161.707c0.345,-2.684 2.641,-4.711 5.358,-4.711l21.561,0c1.693,0 3.299,0.798 4.312,2.156l121.28,161.707c1.79,2.382 1.304,5.757 -1.078,7.546c-2.393,1.768 -5.768,1.294 -7.546,-1.089l-119.663,-159.551l-14.112,0l-19.62,156.996c-0.345,2.727 -2.663,4.722 -5.347,4.722Z" style="fill:#101820;fill-rule:nonzero;"/></g><g><path d="M15.315,249.057c-2.975,0 -5.39,-2.415 -5.39,-5.39l0,-10.78c0,-2.975 2.415,-5.39 5.39,-5.39l99.719,0c2.975,0 5.39,2.415 5.39,5.39c0,2.975 -2.415,5.39 -5.39,5.39l-94.329,0l0,5.39c0,2.975 -2.415,5.39 -5.39,5.39Z" style="fill:#101820;fill-rule:nonzero;"/></g><g><path d="M177.022,152.033l-21.561,0c-2.975,0 -5.39,-2.415 -5.39,-5.39c0,-2.975 2.415,-5.39 5.39,-5.39l21.561,0c2.975,0 5.39,2.415 5.39,5.39c0,2.975 -2.415,5.39 -5.39,5.39Z" style="fill:#101820;fill-rule:nonzero;"/></g><g><path d="M230.925,238.277l-32.341,0c-2.975,0 -5.39,-2.415 -5.39,-5.39c0,-2.975 2.415,-5.39 5.39,-5.39l32.341,0c2.975,0 5.39,2.415 5.39,5.39c0,2.975 -2.415,5.39 -5.39,5.39Z" style="fill:#101820;fill-rule:nonzero;"/></g><g><path d="M155.461,130.472l-10.78,0c-2.975,0 -5.39,-2.415 -5.39,-5.39c0,-2.975 2.415,-5.39 5.39,-5.39l10.78,0c2.975,0 5.39,2.415 5.39,5.39c0,2.975 -2.415,5.39 -5.39,5.39Z" style="fill:#101820;fill-rule:nonzero;"/></g><g><path d="M166.242,173.594l-21.561,0c-2.975,0 -5.39,-2.415 -5.39,-5.39c0,-2.975 2.415,-5.39 5.39,-5.39l21.561,0c2.975,0 5.39,2.415 5.39,5.39c0,2.975 -2.415,5.39 -5.39,5.39Z" style="fill:#101820;fill-rule:nonzero;"/></g><g><path d="M209.364,195.155l-32.341,0c-2.975,0 -5.39,-2.415 -5.39,-5.39c0,-2.975 2.415,-5.39 5.39,-5.39l32.341,0c2.975,0 5.39,2.415 5.39,5.39c0,2.975 -2.415,5.39 -5.39,5.39Z" style="fill:#101820;fill-rule:nonzero;"/></g><g><path d="M187.803,216.716l-32.341,0c-2.975,0 -5.39,-2.415 -5.39,-5.39c0,-2.975 2.415,-5.39 5.39,-5.39l32.341,0c2.975,0 5.39,2.415 5.39,5.39c0,2.975 -2.415,5.39 -5.39,5.39Z" style="fill:#101820;fill-rule:nonzero;"/></g><g><path d="M155.461,87.35l-21.561,0c-2.975,0 -5.39,-2.415 -5.39,-5.39l0,-21.561c0,-8.915 7.255,-16.171 16.171,-16.171c8.915,0 16.171,7.255 16.171,16.171l0,21.561c0,2.975 -2.415,5.39 -5.39,5.39Zm-16.171,-10.78l10.78,0l0,-16.171c0,-2.965 -2.415,-5.39 -5.39,-5.39c-2.975,0 -5.39,2.426 -5.39,5.39l0,16.171Z" style="fill:#101820;fill-rule:nonzero;"/></g><g><path d="M69.218,44.228c-2.253,0 -4.355,-1.434 -5.11,-3.687c-0.938,-2.824 0.582,-5.875 3.407,-6.824l32.341,-10.78c0.798,-0.248 1.649,-0.313 2.469,-0.226l75.463,10.78c2.943,0.42 4.991,3.148 4.571,6.091c-0.42,2.954 -3.116,4.991 -6.102,4.582l-74.202,-10.597l-31.134,10.382c-0.571,0.194 -1.143,0.28 -1.703,0.28Z" style="fill:#101820;fill-rule:nonzero;"/></g></g></svg>